<?xml version="1.0" encoding="utf-8"?>
<!-- Generator: Adobe Illustrator 15.1.0, SVG Export Plug-In . SVG Version: 6.00 Build 0)  -->
<!DOCTYPE svg PUBLIC "-//W3C//DTD SVG 1.1//EN" "http://www.w3.org/Graphics/SVG/1.1/DTD/svg11.dtd">
<svg version="1.1" id="Layer_1" xmlns="http://www.w3.org/2000/svg" xmlns:xlink="http://www.w3.org/1999/xlink" x="0px" y="0px"
	 width="424.265px" height="67.832px" viewBox="0 0 424.265 67.832" enable-background="new 0 0 424.265 67.832"
	 xml:space="preserve">
<path fill="#FFFFFF" d="M183.694,56.07l11.381-11.745c6.191,5.735,12.656,8.649,19.665,8.649c4.19,0,7.194-1.82,7.194-4.734
	c0-2.55-1.729-3.733-10.654-7.192c-10.014-3.915-16.479-8.195-16.479-17.573c0-5.463,2.186-10.289,5.827-13.93
	c4.826-4.826,12.291-7.739,21.122-7.739c11.2,0,20.031,3.642,26.131,9.469l-10.926,12.109c-4.825-4.188-10.378-6.919-16.842-6.919
	c-4.281,0-6.92,2.002-6.92,4.461c0,2.64,1.911,3.551,10.651,7.01c9.834,3.733,16.569,8.195,16.569,17.754
	c0,5.736-2.183,10.652-5.917,14.385c-4.825,4.826-12.382,7.649-21.213,7.649C200.812,67.724,190.614,63.445,183.694,56.07z"/>
<path fill="#FFFFFF" d="M246.247,17.375h16.66l-0.182,24.765l14.293-24.947h14.205l1.002,25.128l13.291-24.946h16.844l-28.498,49.62
	h-14.748l-1.093-25.675l-15.114,25.675h-14.933L246.247,17.375z"/>
<path fill="#FFFFFF" d="M324.004,17.375h17.209l-13.202,49.257h-17.298L324.004,17.375z M328.285,0.167h18.027l-3.46,12.746h-18.027
	L328.285,0.167z"/>
<path fill="#FFFFFF" d="M414.937,58.248l0.365-1.353l4.575-17.031c0.819-3.097,1.458-6.283,1.458-8.923
	c0-9.014-5.189-14.659-14.567-14.659c-7.194,0-13.202,3.278-17.846,8.559c-1.82-5.099-6.102-8.559-12.838-8.559
	c-5.827,0-10.38,2.921-13.749,6.38l1.458-5.638h-17.3l-13.202,50h17.3l7.011-26.328c1.548-5.644,4.371-9.02,9.015-9.02
	c3.641,0,5.28,1.862,5.28,5.141c0,1.094-0.184,2.903-0.546,4.269l-6.92,25.938h17.206l7.011-26.328
	c1.549-5.644,4.371-9.02,9.015-9.02c3.642,0,5.28,1.862,5.28,5.141c0,1.094-0.181,2.551-0.546,3.917l-4.153,15.29h-0.07
	c0,0-0.089,0.485-0.161,1.011c-0.37,2.721-2.367,12.569,12.737,10.519c2.438-0.33,6.577-0.96,10.627-4.678
	C421.376,62.875,414.089,65.394,414.937,58.248z"/>
<path fill="#FFFFFF" d="M22.233,0.926h45.675l-1.204,4.447H25.846l-7.134,26.59h36.689l-1.205,4.448H17.507L9.632,65.78H4.815
	L22.233,0.926z"/>
<path fill="#FFFFFF" d="M72.115,18.528h4.541L63.962,65.78h-4.54L72.115,18.528z M76.562,0h5.651l-1.667,6.208h-5.652L76.562,0z"/>
<path fill="#FFFFFF" d="M87.58,18.528h4.54l-3.521,13.435c6.208-8.708,14.268-14.731,24.274-14.175l-1.297,5.003h-0.371
	c-10.932,0-22.513,8.617-26.498,23.626L79.52,65.78h-4.54L87.58,18.528z"/>
<path fill="#FFFFFF" d="M107.132,58.645l3.243-3.243c5.188,5.005,11.118,7.229,17.326,7.229c6.022,0,12.229-3.705,12.229-9.357
	c0-3.614-2.038-6.3-10.284-9.357c-8.987-3.337-13.249-6.486-13.249-12.693c0-7.504,6.856-13.713,17.511-13.713
	c6.671,0,13.063,2.966,17.047,6.301l-2.964,3.429c-3.613-2.965-8.987-5.56-14.545-5.56c-7.969,0-12.229,4.354-12.229,8.801
	c0,3.614,1.853,5.836,10.654,9.266c9.45,3.705,12.878,7.133,12.878,12.785c0,8.244-8.061,14.266-17.604,14.266
	C119.825,66.797,112.506,64.02,107.132,58.645z"/>
<path fill="#FFFFFF" d="M153.12,57.254c0-1.48,0.278-3.333,0.556-4.536l8.061-30.02h-6.856l1.111-4.17h6.856l4.076-15.101h4.54
	l-4.075,15.101h16.306l-1.113,4.17h-16.305l-8.061,30.112c-0.278,1.204-0.463,2.87-0.463,3.981c0,3.893,2.965,5.652,7.69,5.652
	c2.038,0,4.169-0.463,6.856-1.48l-1.205,4.446c-2.501,0.925-4.261,1.203-6.67,1.203C158.123,66.614,153.12,63.742,153.12,57.254z"/>
</svg>
